<?xml version="1.0" standalone="no"?>
<!DOCTYPE svg PUBLIC "-//W3C//DTD SVG 20010904//EN"
 "http://www.w3.org/TR/2001/REC-SVG-20010904/DTD/svg10.dtd">
<svg version="1.0" xmlns="http://www.w3.org/2000/svg"
 width="360.000000pt" height="360.000000pt" viewBox="0 0 360.000000 360.000000"
 preserveAspectRatio="xMidYMid meet">
<metadata>
Created by potrace 1.11, written by Peter Selinger 2001-2013
</metadata>
<g transform="translate(0.000000,360.000000) scale(0.100000,-0.100000)"
fill="#000000" stroke="none">
<path d="M399 3555 c-178 -48 -327 -204 -359 -375 -6 -33 -10 -544 -10 -1394
0 -1456 -2 -1385 56 -1503 14 -30 54 -83 87 -116 34 -34 60 -65 59 -69 -1 -4
4 -5 12 -2 7 3 20 -1 27 -9 8 -8 41 -25 74 -38 l60 -24 1380 -2 c1332 -3 1382
-2 1443 16 89 27 170 77 225 138 11 12 25 20 30 16 6 -3 7 -1 3 5 -9 15 23 64
37 55 6 -3 7 -1 3 5 -7 12 24 92 37 92 4 0 5 4 2 10 -3 5 -1 27 5 49 11 42 15
2695 4 2761 -3 19 -16 62 -29 94 -13 33 -21 64 -18 69 3 6 2 7 -4 4 -6 -4 -25
14 -43 39 -60 84 -178 160 -286 184 -71 16 -2736 12 -2795 -5z"/>
<path d="M3515 209 c-4 -6 -5 -12 -2 -15 2 -3 7 2 10 11 7 17 1 20 -8 4z"/>
<path d="M3450 139 c0 -5 5 -7 10 -4 6 3 10 8 10 11 0 2 -4 4 -10 4 -5 0 -10
-5 -10 -11z"/>
<path d="M3333 55 c0 -8 4 -12 9 -9 5 3 6 10 3 15 -9 13 -12 11 -12 -6z"/>
</g>
</svg>
